<?xml version="1.0" encoding="UTF-8"?>
<svg width="462px" height="488px" viewBox="0 0 462 488" version="1.1" xmlns="http://www.w3.org/2000/svg" xmlns:xlink="http://www.w3.org/1999/xlink">
    <title>Group</title>
    <defs>
        <text id="text-1" font-family="AppleColorEmoji, Apple Color Emoji" font-size="203" font-weight="normal" fill="#EEE8D6">
            <tspan x="26.6924035" y="205.554355">🤪</tspan>
        </text>
        <filter x="-4.6%" y="-2.1%" width="106.6%" height="105.8%" filterUnits="objectBoundingBox" id="filter-2">
            <feOffset dx="-3" dy="2" in="SourceAlpha" result="shadowOffsetOuter1"></feOffset>
            <feGaussianBlur stdDeviation="2" in="shadowOffsetOuter1" result="shadowBlurOuter1"></feGaussianBlur>
            <feColorMatrix values="0 0 0 0 0   0 0 0 0 0   0 0 0 0 0  0 0 0 0.5 0" type="matrix" in="shadowBlurOuter1"></feColorMatrix>
        </filter>
        <text id="text-3" font-family="AppleColorEmoji, Apple Color Emoji" font-size="203" font-weight="normal" fill="#EEE8D6">
            <tspan x="25.6" y="209.264">🤫</tspan>
        </text>
        <filter x="-5.8%" y="-1.5%" width="107.7%" height="106.0%" filterUnits="objectBoundingBox" id="filter-4">
            <feOffset dx="-4" dy="4" in="SourceAlpha" result="shadowOffsetOuter1"></feOffset>
            <feGaussianBlur stdDeviation="2" in="shadowOffsetOuter1" result="shadowBlurOuter1"></feGaussianBlur>
            <feColorMatrix values="0 0 0 0 0   0 0 0 0 0   0 0 0 0 0  0 0 0 0.5 0" type="matrix" in="shadowBlurOuter1"></feColorMatrix>
        </filter>
    </defs>
    <g id="Page-1" stroke="none" stroke-width="1" fill="none" fill-rule="evenodd">
        <g id="Group" transform="translate(-0.000000, 0.000000)">
            <g id="noun-speech-bubble-1007339" transform="translate(0.000000, 0.000000)"></g>
            <g id="dare" transform="translate(316.260351, 162.035657) rotate(7.000000) translate(-316.260351, -162.035657) translate(186.212351, 30.710480)">
                <polygon id="fill" fill="#E71BFF" fill-rule="nonzero" points="118.660184 4.66175265 100.259095 8.27160424 79.0397739 15.5128481 56.6052014 28.1877173 39.4247491 43.5838869 20.8639011 67.1654982 12.0537809 86.8105583 8.27160424 102.657286 4.46250177 119.938261 4.46250177 138.594247 4.46250177 151.044735 8.27160424 162.868749 12.0537809 174.717894 17.4586855 186.775265 26.2382898 199.087534 39.4247491 216.982417 51.9254982 227.338078 67.156523 238.497922 82.1129046 245.128848 100.259095 250.905329 116.270968 255.109343 129.588466 255.109343 144.388678 255.109343 158.255463 250.905329 173.299802 247.952466 186.27265 242.009046 193.327208 238.497922 205.144042 245.128848 218.418459 250.905329 230.310686 255.109343 239.968071 255.109343 250.905329 255.109343 254.405682 247.952466 250.905329 245.128848 243.326615 238.497922 236.340269 231.455929 230.310686 223.327929 224.123138 213.566431 230.310686 203.521314 243.326615 183.626742 250.905329 162.868749 254.405682 138.594247 254.405682 114.730813 250.905329 94.1110389 243.326615 74.3564806 236.340269 62.2991095 230.310686 51.2720989 218.418459 40.1517456 205.144042 28.1877173 189.620424 20.219477 179.422728 15.5128481 167.363562 8.27160424 154.679717 4.66175265 144.388678 4.66175265 136.870996 4.66175265 129.434092 4.66175265"></polygon>
                <path d="M130.052808,0.00479774731 C95.3048629,0.00479774731 62.6578534,13.5155012 38.0536527,38.1223524 C-9.05719109,85.2327278 -12.6988444,160.244636 28.6554175,211.575659 L30.732564,214.150364 L29.2133668,217.088846 C23.5306119,228.116958 16.2945932,236.180435 7.44499445,240.538602 L7.42803063,240.538602 C3.76379491,242.33678 1.76940224,246.197174 2.378355,250.215643 C2.99469047,254.318989 6.0180782,257.376316 10.0800151,257.985263 L10.0969794,257.985263 L10.1139432,258.002227 C13.3050583,258.509264 16.7598278,258.778803 20.3054577,258.778803 C29.4508473,258.778803 46.8711425,256.963688 64.1910715,245.403689 L66.6998411,243.722378 L69.3688106,245.124693 C87.9968782,254.937324 108.804533,260.096 130.046948,260.096 C164.794893,260.096 197.441902,246.585297 222.046103,221.978445 C246.592883,197.43191 260.096,164.861946 260.096,130.047759 C260.096,95.3001595 246.585162,62.6534747 221.978066,38.0495186 C197.37097,13.5029831 164.793445,-2.5308853e-15 130.046466,-2.5308853e-15 L130.052808,0.00479774731 Z M130.483628,8.27976881 C162.870328,8.27976881 193.395269,20.9186288 216.295493,43.8047174 C239.193785,66.6908059 251.824396,97.2181426 251.824396,129.592549 C251.824396,161.975645 239.184129,192.482705 216.295493,215.38038 C193.406857,238.276124 162.861637,250.905329 130.483628,250.905329 C108.835843,250.905329 87.6032847,245.151702 69.0494201,234.20253 L69.032446,234.185557 C68.3478051,233.78011 67.5952795,233.576449 66.8182749,233.576449 C65.8639299,233.576449 64.9586396,233.863093 64.1476926,234.479756 L64.1307186,234.496729 C50.4417634,245.149482 36.1724568,248.453545 26.4725729,249.281491 L11.3901948,250.56575 L22.6611799,240.452248 C29.5056575,234.309994 35.4617435,225.684383 40.3198935,214.565758 L40.3368675,214.548786 C41.0290404,212.994853 40.7593364,211.220344 39.593757,209.926671 L39.593757,209.909698 L39.5767829,209.909698 C-2.84729382,162.074172 -0.582378167,89.0101676 44.70483,43.7796559 C67.5934661,20.9008089 98.1145444,8.27160424 130.482898,8.27160424 L130.483628,8.27976881 Z" id="outline" fill="#F6F7EB" fill-rule="nonzero" transform="translate(130.048000, 130.048000) scale(-1, 1) translate(-130.048000, -130.048000) "></path>
                <g id="🤪" fill="#EEE8D6" fill-opacity="1">
                    <use filter="url(#filter-2)" xlink:href="#text-1"></use>
                    <use xlink:href="#text-1"></use>
                </g>
            </g>
            <g id="truth" transform="translate(45.056000, 206.848000)">
                <polygon id="fill" fill="#3FC9FF" fill-rule="nonzero" points="118.25385 4.096 99.8591798 7.71208417 78.6472595 14.9658303 56.2205123 27.6625834 39.0460525 43.0853352 20.4916785 66.7076613 11.6846313 86.3866395 7.90377386 102.260728 4.096 119.571539 4.096 138.259736 4.096 150.73172 7.90377386 162.576149 11.6846313 174.445752 17.0876507 186.52394 25.8641926 198.857466 39.0460525 216.783246 51.5424414 227.156787 66.7681535 238.335899 81.7193184 244.978273 99.8591798 250.764727 115.865468 254.976 129.178321 254.976 143.97337 254.976 157.835318 250.764727 172.87441 247.806767 185.842733 241.853085 192.894831 238.335899 204.707543 244.978273 217.97733 250.764727 229.865408 254.976 239.519425 254.976 250.452868 254.976 253.952 247.806767 250.452868 244.978273 242.876797 238.335899 235.892888 231.281748 229.865408 223.139714 223.680018 213.361362 229.865408 203.298903 242.876797 183.369981 250.452868 162.576149 253.952 138.259736 253.952 114.3551 250.452868 93.6997247 242.876797 73.9110592 235.892888 61.8328706 229.865408 50.7868213 217.97733 39.6472681 204.707543 27.6625834 189.189339 19.6805855 178.9952 14.9658303 166.94024 7.71208417 154.26082 4.096 143.97337 4.096 136.458311 4.096 129.024 4.096"></polygon>
                <path d="M130.052808,0.00479774731 C95.3048629,0.00479774731 62.6578534,13.5155012 38.0536527,38.1223524 C-9.05719109,85.2327278 -12.6988444,160.244636 28.6554175,211.575659 L30.732564,214.150364 L29.2133668,217.088846 C23.5306119,228.116958 16.2945932,236.180435 7.44499445,240.538602 L7.42803063,240.538602 C3.76379491,242.33678 1.76940224,246.197174 2.378355,250.215643 C2.99469047,254.318989 6.0180782,257.376316 10.0800151,257.985263 L10.0969794,257.985263 L10.1139432,258.002227 C13.3050583,258.509264 16.7598278,258.778803 20.3054577,258.778803 C29.4508473,258.778803 46.8711425,256.963688 64.1910715,245.403689 L66.6998411,243.722378 L69.3688106,245.124693 C87.9968782,254.937324 108.804533,260.096 130.046948,260.096 C164.794893,260.096 197.441902,246.585297 222.046103,221.978445 C246.592883,197.43191 260.096,164.861946 260.096,130.047759 C260.096,95.3001595 246.585162,62.6534747 221.978066,38.0495186 C197.37097,13.5029831 164.793445,0 130.046466,0 L130.052808,0.00479774731 Z M130.483628,8.27976881 C162.870328,8.27976881 193.395269,20.9186288 216.295493,43.8047174 C239.193785,66.6908059 251.824396,97.2181426 251.824396,129.592549 C251.824396,161.975645 239.184129,192.482705 216.295493,215.38038 C193.406857,238.276124 162.861637,250.905329 130.483628,250.905329 C108.835843,250.905329 87.6032847,245.151702 69.0494201,234.20253 L69.032446,234.185557 C68.3478051,233.78011 67.5952795,233.576449 66.8182749,233.576449 C65.8639299,233.576449 64.9586396,233.863093 64.1476926,234.479756 L64.1307186,234.496729 C50.4417634,245.149482 36.1724568,248.453545 26.4725729,249.281491 L11.3901948,250.56575 L22.6611799,240.452248 C29.5056575,234.309994 35.4617435,225.684383 40.3198935,214.565758 L40.3368675,214.548786 C41.0290404,212.994853 40.7593364,211.220344 39.593757,209.926671 L39.593757,209.909698 L39.5767829,209.909698 C-2.84729382,162.074172 -0.582378167,89.0101676 44.70483,43.7796559 C67.5934661,20.9008089 98.1145444,8.27160424 130.482898,8.27160424 L130.483628,8.27976881 Z" id="outline" fill="#F6F7EB" fill-rule="nonzero" transform="translate(130.048000, 130.048000) scale(-1, 1) translate(-130.048000, -130.048000) "></path>
                <g id="🤫" fill="#EEE8D6" fill-opacity="1">
                    <use filter="url(#filter-4)" xlink:href="#text-3"></use>
                    <use xlink:href="#text-3"></use>
                </g>
            </g>
        </g>
    </g>
</svg>